<svg xmlns="http://www.w3.org/2000/svg" xmlns:xlink="http://www.w3.org/1999/xlink" width="500" zoomAndPan="magnify" viewBox="0 0 375 374.999991" height="500" preserveAspectRatio="xMidYMid meet" version="1.0"><defs><clipPath id="cc987e17c8"><path d="M 6 23.226562 L 341 23.226562 L 341 191 L 6 191 Z M 6 23.226562 " clip-rule="nonzero"/></clipPath></defs><path fill="#ffffff" d="M 364.960938 246.988281 C 287.429688 242.351562 209.308594 250.347656 132.570312 261.398438 C 106.957031 265.328125 81.4375 269.910156 56.332031 275.746094 C 52.550781 276.625 48.777344 274.273438 47.898438 270.492188 C 47.15625 267.300781 48.722656 264.097656 51.515625 262.664062 C 71.617188 252.707031 92.609375 245.890625 113.71875 240.140625 C 142.441406 232.285156 173.074219 226.621094 204.03125 222.136719 C 167.019531 223.570312 130.035156 226.695312 93.25 230.609375 C 72.707031 232.976562 52.121094 235.316406 31.894531 239.425781 C 28.914062 240.054688 26.121094 240.765625 23.488281 241.582031 C 15.851562 243.8125 10.941406 233.605469 17.5625 229.070312 C 29.070312 220.964844 41.308594 216.117188 54.050781 211.144531 C 66.414062 206.5 78.902344 202.53125 91.464844 198.867188 C 167.113281 177.859375 244.535156 163.3125 323.320312 161.957031 C 329.503906 161.949219 334.523438 166.953125 334.539062 173.136719 C 334.554688 179.394531 329.394531 184.472656 323.132812 184.347656 C 246.644531 184.300781 170.03125 196.640625 95.855469 214.839844 C 95.179688 215.011719 94.515625 215.191406 93.839844 215.375 C 116.984375 212.777344 140.21875 210.988281 163.464844 209.417969 C 211.859375 206.726562 260.570312 204.296875 308.894531 210.210938 C 317.210938 211.796875 316.285156 223.910156 307.742188 224.105469 C 286.378906 224.152344 264.804688 225.988281 243.476562 228.488281 C 204.769531 233.125 166.003906 239.277344 128.3125 249.183594 C 129.125 249.066406 129.949219 248.957031 130.765625 248.847656 C 208.589844 239.050781 287.226562 232.40625 365.652344 238.484375 C 371.011719 239.066406 370.71875 247.199219 364.960938 246.988281 Z M 364.960938 246.988281 " fill-opacity="1" fill-rule="nonzero"/><path fill="#ffc100" d="M 337.617188 271.691406 C 331.410156 265.136719 321.863281 260.761719 313.363281 259.855469 C 290.667969 257.4375 268.605469 264.398438 246.226562 266.414062 C 204.15625 270.195312 162.148438 274.839844 120.414062 281.375 C 98.558594 284.800781 36.25 283.300781 32.117188 313.371094 C 30.753906 323.335938 40.117188 331.726562 49.664062 334.863281 C 98.53125 350.914062 150.148438 351.773438 200.808594 345.894531 C 221.859375 343.453125 242.867188 339.558594 263.46875 334.617188 C 287.132812 328.9375 329.625 320.722656 341.824219 296.636719 C 346.703125 287.003906 343.835938 278.253906 337.617188 271.691406 Z M 337.617188 271.691406 " fill-opacity="1" fill-rule="nonzero"/><g clip-path="url(#cc987e17c8)"><path fill="#ffc100" d="M 71.6875 183.191406 C 118.566406 173.171875 165.753906 164.40625 213.332031 158.449219 C 237.53125 155.417969 261.824219 153.109375 286.175781 151.71875 C 305.871094 150.59375 341.214844 158.824219 340.316406 128.144531 C 339.867188 112.875 333.960938 97.828125 324.757812 84.273438 C 307.664062 59.09375 279.191406 39.066406 253.171875 32.328125 C 230.976562 26.582031 209.472656 23.210938 186.410156 23.953125 C 152.042969 25.0625 117.386719 33.210938 87.339844 50.25 C 48.105469 72.503906 9.460938 116.117188 6.503906 163.089844 C 3.929688 203.992188 48.664062 188.109375 71.6875 183.191406 Z M 182.976562 54.707031 C 184.65625 52.601562 186.957031 50.984375 189.507812 50.113281 C 191.234375 49.523438 192.65625 51.636719 191.464844 53.019531 C 189.84375 54.90625 187.007812 56.074219 184.21875 56.734375 C 183.0625 57.007812 182.234375 55.636719 182.976562 54.707031 Z M 150.78125 48.152344 C 153.980469 44.136719 158.363281 41.058594 163.222656 39.398438 C 166.511719 38.273438 169.21875 42.304688 166.953125 44.941406 C 163.863281 48.53125 158.460938 50.757812 153.148438 52.011719 C 150.945312 52.53125 149.367188 49.921875 150.78125 48.152344 Z M 145.367188 74.261719 C 148.316406 70.5625 152.355469 67.726562 156.835938 66.195312 C 159.867188 65.160156 162.363281 68.875 160.273438 71.304688 C 157.425781 74.613281 152.445312 76.664062 147.550781 77.820312 C 145.515625 78.300781 144.0625 75.894531 145.367188 74.261719 Z M 125.101562 58.222656 C 127.300781 55.464844 130.308594 53.351562 133.644531 52.210938 C 135.90625 51.441406 137.765625 54.207031 136.207031 56.015625 C 134.085938 58.484375 130.375 60.011719 126.730469 60.871094 C 125.214844 61.230469 124.132812 59.4375 125.101562 58.222656 Z M 125.101562 58.222656 " fill-opacity="1" fill-rule="nonzero"/></g></svg>